<?xml version="1.0" encoding="UTF-8" standalone="no"?>
<!DOCTYPE svg PUBLIC "-//W3C//DTD SVG 20010904//EN"
              "http://www.w3.org/TR/2001/REC-SVG-20010904/DTD/svg10.dtd">

<svg xmlns="http://www.w3.org/2000/svg"
     width="1.66667in" height="1.66667in"
     viewBox="0 0 500 500">
  <path id="Auswahl"
        fill="black" stroke="black" stroke-width="1"
        d="M 260.00,362.80
           C 246.23,368.20 223.74,373.82 209.00,374.00
             209.00,374.00 196.00,374.66 196.00,374.66
             196.00,374.66 186.00,374.00 186.00,374.00
             146.79,373.80 103.72,353.77 75.00,327.83
             15.26,273.88 0.03,185.45 35.75,114.00
             42.43,100.64 51.16,87.12 61.17,76.00
             92.97,40.67 134.53,19.38 182.00,15.91
             182.00,15.91 192.00,15.00 192.00,15.00
             223.89,14.63 257.24,22.53 285.00,38.43
             365.13,84.30 398.28,183.73 360.30,268.00
             354.65,280.55 346.98,294.54 338.00,305.00
             338.00,305.00 377.00,343.00 377.00,343.00
             377.00,343.00 449.00,415.00 449.00,415.00
             449.00,415.00 460.04,427.00 460.04,427.00
             460.04,427.00 476.09,443.04 476.09,443.04
             478.08,445.08 485.60,451.78 485.95,454.17
             486.42,457.41 481.13,461.87 479.00,464.00
             472.99,470.03 461.22,482.54 455.00,487.00
             455.00,487.00 305.00,337.00 305.00,337.00
             296.30,346.70 272.50,357.89 260.00,362.80 Z
           M 154.00,46.74
           C 127.03,54.23 100.92,70.23 82.17,91.00
             60.98,114.46 46.19,146.41 43.04,178.00
             43.04,178.00 43.04,186.00 43.04,186.00
             43.04,186.00 42.03,195.00 42.03,195.00
             42.03,195.00 42.91,204.00 42.91,204.00
             45.54,242.19 60.13,277.99 88.00,304.96
             107.35,323.68 131.03,336.92 157.00,343.85
             174.89,348.62 195.67,349.92 214.00,347.72
             236.49,345.02 258.82,337.77 278.00,325.56
             293.99,315.39 309.50,301.40 320.57,286.00
             370.39,216.71 355.88,119.66 286.00,69.58
             272.44,59.86 254.20,50.80 238.00,46.63
             221.86,42.48 202.65,39.74 186.00,41.28
             175.15,42.84 164.66,43.78 154.00,46.74 Z
           M 293.00,141.00
           C 293.00,141.00 202.98,231.09 202.98,231.09
             202.98,231.09 159.00,274.00 159.00,274.00
             159.00,274.00 118.58,232.72 118.58,232.72
             115.86,229.96 105.20,220.29 105.20,217.00
             105.20,214.76 107.58,212.51 109.02,211.00
             109.02,211.00 122.00,198.00 122.00,198.00
             122.00,198.00 149.00,225.00 149.00,225.00
             151.15,227.15 157.07,233.96 160.00,233.96
             162.73,233.96 167.10,228.90 169.00,227.00
             169.00,227.00 190.00,206.00 190.00,206.00
             190.00,206.00 274.00,122.00 274.00,122.00
             279.69,126.08 288.92,135.31 293.00,141.00 Z" />
</svg>
